<svg width="40" height="40" viewBox="0 0 40 40" fill="none" xmlns="http://www.w3.org/2000/svg">
  <path fill-rule="evenodd" clip-rule="evenodd" d="M8.92893 8.92893C9.31946 8.53841 9.95262 8.53841 10.3431 8.92893L20 18.5858L29.6569 8.92893C30.0474 8.53841 30.6805 8.53841 31.0711 8.92893C31.4616 9.31946 31.4616 9.95262 31.0711 10.3431L21.4142 20L31.0711 29.6569C31.4616 30.0474 31.4616 30.6805 31.0711 31.0711C30.6805 31.4616 30.0474 31.4616 29.6569 31.0711L20 21.4142L10.3431 31.0711C9.95262 31.4616 9.31946 31.4616 8.92893 31.0711C8.53841 30.6805 8.53841 30.0474 8.92893 29.6569L18.5858 20L8.92893 10.3431C8.53841 9.95262 8.53841 9.31946 8.92893 8.92893Z" fill="white"/>
</svg>
